<?xml version="1.0" encoding="UTF-8" standalone="no"?>
<!-- Created with Inkscape (http://www.inkscape.org/) -->

<svg
   id="svg2"
   height="28.321mm"
   width="142.87mm"
   version="1.1"
   viewBox="0 0 506.21675 100.34893"
   xmlns:xlink="http://www.w3.org/1999/xlink"
   xmlns="http://www.w3.org/2000/svg"
   xmlns:svg="http://www.w3.org/2000/svg"
   xmlns:rdf="http://www.w3.org/1999/02/22-rdf-syntax-ns#"
   xmlns:cc="http://creativecommons.org/ns#"
   xmlns:dc="http://purl.org/dc/elements/1.1/">
  <defs
     id="defs4">
    <linearGradient
       id="linearGradient133">
      <stop
         style="stop-color:#ffffff;stop-opacity:1;"
         offset="0"
         id="stop133" />
      <stop
         style="stop-color:#727374;stop-opacity:0.72000003;"
         offset="0.29042906"
         id="stop153" />
      <stop
         style="stop-color:#4b86a7;stop-opacity:0.98039216;"
         offset="0.31353134"
         id="stop155" />
      <stop
         style="stop-color:#4b86a7;stop-opacity:0.9937107;"
         offset="0.50165015"
         id="stop156" />
      <stop
         style="stop-color:#727273;stop-opacity:0.45882353;"
         offset="0.51815182"
         id="stop154" />
      <stop
         style="stop-color:#ffffff;stop-opacity:1;"
         offset="1"
         id="stop134" />
    </linearGradient>
    <linearGradient
       xlink:href="#linearGradient133"
       id="linearGradient134"
       x1="0.004082375"
       y1="50.186375"
       x2="506.22125"
       y2="50.186375"
       gradientUnits="userSpaceOnUse" />
  </defs>
  <metadata
     id="metadata7">
    <rdf:RDF>
      <cc:Work
         rdf:about="">
        <dc:format>image/svg+xml</dc:format>
        <dc:type
           rdf:resource="http://purl.org/dc/dcmitype/StillImage" />
      </cc:Work>
    </rdf:RDF>
  </metadata>
  <g
     id="layer3"
     style="display:none;mix-blend-mode:normal;fill:#000000">
    <rect
       style="fill:#000000;fill-opacity:1;stroke:none;stroke-width:0;stroke-dasharray:none"
       id="rect89"
       width="506.76602"
       height="100.33628"
       x="-0.34404677"
       y="1.1432298e-08" />
  </g>
  <path
     id="path134"
     style="baseline-shift:baseline;display:inline;overflow:visible;vector-effect:none;fill:url(#linearGradient134);enable-background:accumulate;stop-color:#000000;stop-opacity:1"
     d="m 184.41497,16.772283 0.74706,1.332994 0.10254,-0.08789 z m -8.65714,15.041955 c -0.0708,0.0075 -0.10005,0.07188 -0.0549,0.228879 0.1709,-0.458987 0.71716,0.502917 0.85876,0.17578 -0.0877,-0.0075 -0.58179,-0.403947 -0.78918,-0.404659 -0.005,-1.3e-5 -0.01,-4.75e-4 -0.0146,0 z m -4.99323,28.403019 -0.27282,0.419307 0.72692,-0.120848 z m 51.1042,18.691208 c -0.1025,0.1416 6.1e-4,0.717769 0.3424,0.908194 0.005,-0.239263 0.11175,-0.151131 0.22888,-0.161131 z m 2.40231,-2.37119 c -0.1458,0.03163 -0.009,0.862423 -0.37536,0.598748 0.61529,0.571288 0.5469,-0.151365 0.64453,-0.292965 -0.14039,-0.236825 -0.22057,-0.316308 -0.26917,-0.305783 z m 6.48187,-3.493616 c -0.004,2.13e-4 -0.007,0.0018 -0.009,0.0018 -0.1554,0.02 -0.16787,0.258004 -0.28747,0.289304 0.34423,0.137875 0.67006,0.232601 0.82031,0.04578 -0.27052,-0.263125 -0.42463,-0.343711 -0.52368,-0.336911 z m -0.29663,0.291135 c -0.0696,-0.02788 -0.13889,-0.05656 -0.20874,-0.08606 0.0973,0.07913 0.16128,0.09856 0.20874,0.08606 z m -0.96312,-1.953715 c -0.22949,0.288088 -0.0305,0.555414 0.63354,0.736076 -0.23438,-0.288087 -0.31128,-0.511463 -0.63354,-0.736076 z m 4.62153,-2.127663 c -0.16114,0.439375 -0.0733,1.449557 0.51269,1.913432 z m 2.18443,-1.792583 c -0.003,2.95e-4 -0.006,0.0018 -0.009,0.0018 -0.25246,0.02375 0.20153,0.431209 0.17944,0.617059 0.13673,0.0195 0.74768,0.10624 0.53283,-0.02564 -0.27343,-0.239262 -0.63898,-0.390619 -0.60973,-0.585931 -0.0319,-0.005 -0.0599,-0.0073 -0.0824,-0.0073 -0.004,5e-5 -0.008,-2.96e-4 -0.011,0 z m 12.80809,-13.738258 c -0.66088,0.01 -1.40166,0.243545 -2.06907,0.260007 1.08887,0.605463 1.58138,-0.04949 2.42612,-0.239866 -0.116,-0.016 -0.23467,-0.02214 -0.35705,-0.02014 z M 491.76706,22.012706 c -11.0545,0 -17.75372,6.795636 -17.75372,15.096886 0,6.152375 4.3555,11.249987 13.61375,14.551237 6.8945,2.558625 9.55068,5.00051 9.55068,9.453635 0,4.25775 -3.18227,7.655559 -9.97914,7.655559 -4.668,0 -9.5707,-1.913319 -12.3247,-3.729819 l -2.34373,7.12822 c 3.61325,2.128875 8.82799,3.614464 14.45236,3.614464 12.2265,0 19.23869,-6.485744 19.23869,-15.508869 0,-7.65625 -4.57056,-12.128554 -13.49656,-15.527179 -6.69925,-2.539 -9.78505,-4.45236 -9.78505,-8.710235 0,-3.828125 3.08594,-7.012865 8.61319,-7.012865 4.78512,0 8.49668,1.69925 10.50831,2.98825 l 2.34372,-6.815114 c -2.87,-1.7 -7.4428,-3.18417 -12.6378,-3.18417 z M 455.94835,2.8912047 c -3.3985,0 -5.83918,2.5597525 -5.83918,5.8410025 0,3.1836248 2.34434,5.7421268 5.64509,5.7421268 3.711,0 6.05346,-2.558502 5.93621,-5.7421268 0,-3.28125 -2.22637,-5.8410025 -5.74212,-5.8410025 z m -4.66731,20.2933643 v 51.426457 h 9.35476 V 23.184569 Z M 424.8299,22.012706 c -11.0545,0 -17.75372,6.795636 -17.75372,15.096886 0,6.152375 4.3555,11.249987 13.61375,14.551237 3.78035,1.402925 6.28737,2.771522 7.78007,4.454909 1.22965,1.386738 1.77061,2.987301 1.77061,4.998726 0,4.25775 -3.1841,7.655559 -9.98097,7.655559 -4.668,0 -9.56887,-1.913319 -12.32287,-3.729819 l -2.34556,7.12822 c 3.61325,2.128875 8.82799,3.614464 14.45237,3.614464 12.2265,0 19.23868,-6.485744 19.23868,-15.508869 0,-7.65625 -4.56873,-12.128554 -13.49473,-15.527179 -6.69925,-2.539 -9.78505,-4.45236 -9.78505,-8.710235 0,-3.828125 3.08594,-7.012865 8.61319,-7.012865 4.78513,0 8.49486,1.69925 10.50648,2.98825 l 2.34373,-6.815114 c -2.87,-1.7 -7.44098,-3.18417 -12.63598,-3.18417 z m -52.17901,0 c -14.23875,0 -25.48801,10.097023 -25.48801,27.304398 0,16.27 10.72144,26.465784 24.64756,26.465784 12.42188,0 25.6052,-8.280648 25.6052,-27.304398 0,-15.7225 -9.99975,-26.465784 -24.76475,-26.465784 z m -0.21423,7.012865 c 11.05475,0 15.40999,11.053945 15.40999,19.764195 0,11.582 -6.68066,19.980257 -15.60591,19.980257 -9.14063,0 -15.62423,-8.497151 -15.62423,-19.766026 0,-9.785125 4.78527,-19.978426 15.82015,-19.978426 z m -85.52949,-7.012865 c -8.49613,0 -13.28031,4.57076 -16.15156,9.453635 h -0.31311 l -0.43029,-8.281772 h -8.1829 c 0.33325,4.25875 0.43029,8.614354 0.43029,13.926854 l 0.002,37.499603 h 9.14053 V 43.595119 c 0,-1.6015 0.21423,-3.203139 0.74157,-4.570264 1.48438,-4.6875 5.74338,-9.354759 11.58313,-9.354759 7.10938,0 10.72254,5.956694 10.72254,14.120944 v 30.819986 h 9.14053 V 42.833408 c 0,-1.69925 0.33141,-3.397809 0.74157,-4.667309 1.6015,-4.57025 5.74329,-8.496003 11.05579,-8.496003 7.539,0 11.15101,5.957144 11.15101,15.820144 v 29.120786 h 9.14052 V 44.336688 c 0,-17.85125 -10.09758,-22.323982 -16.89496,-22.323982 -4.88275,0 -8.28106,1.270714 -11.36706,3.614464 -2.12888,1.6015 -4.14051,3.826802 -5.74213,6.697927 h -0.21606 c -2.2265,-6.05475 -7.53899,-10.312391 -14.55124,-10.312391 z m -157.4965,0 c -8.49613,0 -14.45201,4.784991 -16.99201,9.667866 h -0.21423 l -0.52734,-8.496003 h -8.30191 c 0.33175,4.25875 0.43029,8.614354 0.43029,13.926854 v 37.499603 h 9.35659 V 43.692164 c 0,-1.6015 0.21424,-3.182327 0.62439,-4.354202 1.6015,-5.214875 6.38693,-9.570821 12.53893,-9.570821 8.82812,0 11.91454,6.914761 11.91454,15.195761 v 29.648124 h 9.33462 v -30.7028 c 0,-17.63625 -11.03525,-21.89552 -18.16387,-21.89552 z m -58.424674,0 c -14.98,0 -24.122059,12.226191 -24.122059,27.734691 0,15.5075 9.453155,26.035491 25.27378,26.035491 8.183625,0 13.828525,-1.816982 17.111025,-3.301357 l -1.583846,-6.699758 c -3.515625,1.503875 -7.558005,2.656833 -14.23813,2.656833 -9.355,0 -17.421532,-5.195328 -17.636532,-17.832453 h 36.113509 c 0.117187,-0.957025 0.331417,-2.459702 0.331417,-4.354202 0,-9.472625 -4.471789,-24.239245 -21.249164,-24.239245 z m -0.741569,6.699758 c 10.50775,0 13.066581,9.239012 12.949081,15.195762 H 55.88911 C 56.631298,37.423851 60.772177,28.712464 70.244427,28.712464 Z M 2.1335764,23.184569 v 7.538372 H 29.965313 v 0.214231 c -2.34375,2.7735 -4.453633,5.216622 -6.699758,7.970497 L 0.00408237,69.200316 v 5.41071 H 41.760842 V 67.169698 H 11.684256 v -0.216062 c 2.34375,-2.65625 4.472008,-5.194585 6.600883,-8.06571 L 41.233504,29.02374 41.33238,23.184569 Z M 202.82054,0.01464828 c -7.39038,0.1 -14.63539,2.54875072 -21.30776,5.64325072 -8.85688,4.94625 -15.13037,12.984389 -19.55912,21.734389 1.44044,2.49025 -0.39612,3.808496 0.85876,6.210871 l -0.66833,-0.404658 c 0.47362,1.76275 -0.83067,1.576451 -2.39317,3.026701 0.83984,0.3125 -0.004,0.751937 1.48497,0.966787 0.96688,0.957037 -2.38278,0.440048 -1.96287,1.558211 -0.48827,-0.107375 0.85327,0.214817 0.35522,0.278317 1.13775,2.78325 -0.66339,-0.703803 -2.83627,2.001322 -0.37602,4.502 0.71358,8.915822 0.0348,13.022322 -0.083,-0.254137 1.09807,-0.415242 1.13707,-0.0092 -2.3828,0.517625 0.72754,1.332372 -0.19042,2.10386 -0.49805,-0.01463 -0.67382,-0.34607 -0.89355,-0.521845 -0.92695,1.984125 0.8907,3.340376 0.1062,5.267888 1.2733,1.489325 -0.19089,3.883141 1.27074,4.711254 -0.98633,0 -0.50842,0.953355 -0.8258,1.446518 3.1445,0.254 0.21549,3.559529 2.59824,4.335891 l -0.48339,0.150145 c 2.05087,4.19925 4.28214,9.043492 8.42276,11.958492 1.94338,1.80675 2.39739,5.864187 5.59564,6.928637 0.68359,0.04888 0.72753,-0.707406 1.24511,-0.639031 0.55664,0.507812 -0.56087,0.689086 -0.5365,1.133411 1.92388,-0.05863 2.56828,2.347379 4.26266,3.270229 0.43457,-0.273438 0.94725,-0.112259 1.15721,-0.776359 0.75675,2.822325 4.53186,1.783374 5.82086,3.951374 0.33213,-2.563413 1.64426,-0.713496 2.55246,-1.045521 0.34189,0.250187 0.14758,0.866076 -0.14282,1.267076 1.56899,0.251113 2.34641,0.539748 3.96603,1.671735 0.92762,-0.044 1.48557,-1.293328 2.384,-0.668328 0.23925,1.860373 2.08006,0.575553 2.95896,1.312853 0.01,-1.4893 1.42087,-2.470083 2.28513,-1.693708 l -0.57128,2.015968 c 3.23725,-0.820348 7.96254,1.5539 11.48791,-1.380599 l 0.40649,1.166369 c 3.57413,-1.894499 7.70494,-1.220691 10.34169,-4.760691 1.11812,0.278313 2.77827,0.150756 3.63277,-0.313107 0.75195,-1.518625 1.22412,-1.620423 1.23412,-3.480798 0.36627,-0.307612 1.09069,0.429062 1.45201,0.697624 1.50875,-0.546875 3.84616,0.06412 3.85616,-2.279638 l 0.62988,0.825796 c 0.46875,-1.6895 1.15286,-3.71571 2.99374,-3.74996 -0.28809,-0.9815 0.50779,-2.188082 -0.76171,-2.656832 0.24902,-0.532225 1.43614,1.054072 1.10411,-0.137328 l 0.61889,1.470322 c 2.68563,-1.875 3.98921,-4.517172 5.1269,-7.432172 2.02631,0.34675 1.53802,-2.474939 3.23727,-3.451502 -0.27831,-1.32325 1.74797,-2.285756 0.0732,-3.945881 l 0.94848,0.40649 c 0.75675,-1.1475 1.45871,-2.819121 2.50852,-4.352371 0.62502,-0.90325 -0.80444,-1.380594 -1.07299,-2.288794 l 1.00524,0.258176 c -0.38575,-1.059563 -1.87497,-1.704689 -2.81247,-2.275977 0.84472,-0.439462 0.14709,-0.692128 0.98693,-1.146228 0.40037,0.7275 1.35617,1.538063 2.59641,2.343725 0.71288,-0.991125 -1.58568,-2.626313 0.14282,-2.924163 0.50776,-0.8079 0.23909,-1.571611 -0.93749,-1.884136 0.36527,0.0087 0.77097,-0.418585 1.21947,0.09155 0.0649,-0.675187 0.007,-1.12595 -0.4834,-1.596663 -0.0291,0.125263 -0.20884,0.280351 -0.19042,0.424801 -0.99125,-0.463863 -0.84046,-1.090029 -2.42246,-1.138904 0.35641,0.366212 0.60119,0.420523 0.41564,0.811148 -1.05957,-0.327162 -1.19567,-1.381818 -0.19958,-1.552718 1.15237,-0.209962 1.70834,0.932011 2.44077,0.492549 l -2.31992,-1.810894 c 0.24921,0.362025 -0.38661,0.701011 -1.25976,0.492548 l 0.64453,0.732415 -1.12243,-0.14099 c 0.25879,1.162125 -1.01623,1.752944 -0.28381,3.032194 l 1.20666,-0.243527 c -0.0733,0.67875 1.42021,1.71872 -0.0934,2.065407 -0.33201,-0.395562 -0.95152,-0.292962 -1.57652,-0.4248 0.16601,0.195313 0.55664,0.459585 0.33691,0.606073 l -1.83103,-0.723259 c 2.45603,0.84475 0.46812,1.97203 0.80016,2.35288 l -0.31677,-0.190427 c -1.04485,0.737262 1.08886,0.122119 0.95214,0.791007 -0.44438,0.478525 -2.08432,-0.385735 -2.98276,-0.131835 -0.26855,0.878875 0.54143,3.013883 -1.23595,3.453333 -0.0538,0.8985 0.16661,2.049527 0.60608,3.182339 -0.34668,0.72265 -1.7871,-0.970468 -1.333,0.157469 -0.57974,-0.397125 -1.263,-0.648006 -1.87681,-0.904531 0.68824,0.442987 -0.82081,1.14745 1.03087,1.494125 -0.94235,0.75675 -1.63571,1.768771 -2.05076,2.911346 0.13663,-0.385713 -0.83432,-1.162746 -1.53257,-1.265246 0.69336,1.098625 0.67382,2.289395 -0.17578,2.86557 1.01074,0.791063 1.19688,0.513902 2.11484,1.373277 0.0684,0.249012 0.35518,0.805043 0.12085,0.961293 -1.11325,-0.71775 -2.64034,-2.02147 -3.27023,-1.420883 -1.40625,-1.499025 1.15595,-0.942977 -0.6848,-1.953715 -1.06449,-1.34765 -0.32106,-2.509124 0.7141,-2.191749 -1.02046,-1.586912 -0.50779,0.327763 -1.83104,-0.800162 -0.25388,0.571375 0.29295,1.351909 -0.0879,2.323584 0.67383,0.576175 0.99548,0.380239 1.25426,1.210314 0.76175,1.88475 -1.77671,0.0013 -1.97202,0.09888 -0.0685,-0.234375 0.004,-0.405869 -0.0641,-0.635369 -0.84472,0.01962 -0.0885,0.977156 -0.57677,1.382431 -1.84089,-1.50875 0.4602,-0.918552 -0.47241,-2.056252 l -0.64453,-0.344235 c 0.52684,-1.962075 0.79467,-4.01149 0.79467,-6.106503 0,-11.796875 -6.91409,-18.359281 -20.50759,-23.613031 -11.09375,-4.296875 -15.99593,-7.989618 -15.99593,-15.508868 0,-5.48825 4.17898,-12.050044 15.15548,-12.050044 7.28513,0 12.637,2.402945 15.2745,3.828695 l 0.9796,-2.911346 c -0.44378,-0.15435 -0.87804,-0.336412 -1.34214,-0.432124 3.125,0.6445 5.67867,2.889376 9.15517,3.079801 -0.083,0.32715 -0.38147,0.416253 -0.65002,0.611566 2.45113,-0.08788 1.4367,3.64199 4.6252,2.26499 l 1.31285,-0.591424 c -0.0879,0.688475 -0.81054,1.313455 -0.93749,1.87498 0.8985,-0.346687 1.28415,1.041251 2.34373,0.421138 -0.28322,0.498038 -0.60119,0.39916 -0.89904,0.662835 0.34662,0.761713 2.4371,0.347272 2.59824,1.250597 l -0.62988,0.161131 c 0.7715,4.78025 1.2793,9.663517 5.14155,11.738767 0.80075,0.68355 -1.54235,0.965563 -1.25426,1.278063 3.53032,2.56825 0.45768,7.222804 4.50068,9.883929 l 0.011,0.01831 c 1.123,2.387662 5.48761,3.296356 5.48761,3.301356 -1.626,-6.71875 -0.93625,-12.599227 -1.64427,-20.069977 -1.32325,-2.05075 -3.21895,-4.481107 -3.83418,-6.653982 -4.91625,-7.363375 -10.00412,-16.6080039 -19.56462,-19.8502539 0.21487,0.703125 -0.6439,1.2066756 -1.18101,1.2213006 l 0.097,-0.4742382 -1.12242,0.6463555 c -0.669,-0.2002 0.15989,-1.3152635 0.78002,-1.2176385 -3.42775,-1.65525 -6.79061,-2.2900088 -10.27211,-3.4423463 -0.59088,1.4892125 -1.87132,-0.3857245 -2.32542,1.2744005 -0.10737,-0.32715 0.0593,-0.3808567 0.22522,-0.6884692 -2.63675,0.439375 -2.69524,0.4345431 -4.78999,-1.86033186 -2.48031,-0.55175 -4.95956,-0.77858136 -7.42301,-0.74523136 z M 248.48106,57.426759 c 0.0171,-0.07375 -0.004,-0.139647 -0.18493,-0.181272 0.0787,0.06162 0.122,0.120872 0.18493,0.181272 z m -60.55783,40.158266 c -0.19061,-0.0305 -0.34551,-0.06446 -0.56396,-0.09521 l 0.41382,0.292966 c 0.0535,-0.05212 0.10049,-0.129127 0.15014,-0.197752 z M 156.98606,60.892909 c -0.10062,-0.117625 -0.21206,-0.231785 -0.34973,-0.33691 -0.0195,0.1709 0.0921,0.249634 0.33142,0.400996 0.01,-0.02213 0.009,-0.04209 0.0183,-0.06409 z m 35.78209,-47.909038 h 0.002 c -0.0773,0.07292 -0.14648,0.176387 -0.20324,0.322262 0.0568,-0.145875 0.12407,-0.249337 0.20141,-0.322262 z m -8.19754,3.092619 c 0.48072,0.159412 0.82917,1.176659 1.23412,1.356797 -2.12609,3.23775 -3.29038,7.058044 -3.29038,11.242556 0,11.328125 8.10453,18.145228 21.22903,22.792728 10.85937,4.160125 15.15731,8.456532 15.15731,15.975782 0,8.1055 -6.21098,13.710793 -16.81623,13.710793 -7.168,0 -13.96555,-2.381474 -18.6143,-5.233099 l -0.84594,2.790498 c -0.22944,-0.0484 -0.39879,-0.161553 -0.45776,-0.274656 l 0.18127,-0.175779 c -0.77152,0.332037 -1.51427,0.253912 -1.38243,-0.527338 l 0.12268,-0.0238 c -0.17581,-0.341787 0.14588,-1.251209 -0.19592,-1.417221 -1.06445,0.825187 -1.07846,-0.424195 -2.10386,0.225217 0.0781,-0.131837 0.19958,-0.151362 0.34606,-0.4248 l -0.85875,0.752556 -0.0293,-1.001577 c 0.44434,-0.175775 0.83923,-0.479081 1.21032,-0.532831 0.0635,-1.098662 -0.96557,0.50783 -1.71752,0.60058 -1.01071,0.11225 -0.13676,-0.599359 0.0586,-1.102284 0.59081,-0.2002 0.0684,0.473574 0.32226,0.439449 0.90331,-0.35645 0.0538,-0.483394 0.54199,-0.908194 -0.039,-0.117125 -1.16338,0.756834 -1.1975,0.249021 -0.11225,-0.366187 -0.89233,-0.815412 0.15747,-1.494125 -0.69825,0.1611 -0.80626,-0.201531 -1.39708,-0.05493 -0.01,0.36615 0.0531,0.987535 -0.53283,1.51976 -0.28809,-0.117125 -0.88318,-0.356438 -0.49255,-0.747063 l 0.37536,-0.01099 c -0.37597,0.01 -0.54564,-0.848999 -1.23412,0.151976 l 0.96679,-1.371446 c -0.9228,0.385738 -1.1682,-0.1416 -1.593,-0.4248 1.06446,-0.69825 2.42735,-1.168188 2.26133,-2.017801 l -1.46483,0.06409 c -0.29785,-0.263675 -0.10687,-0.493154 0.57678,-0.820304 -0.0489,-1.381838 -3.7219,0.516993 -3.20432,-0.957632 1.54292,-0.273425 1.49963,-0.673209 1.6754,-1.254259 -0.22949,0.09287 -0.69762,0.269255 -0.82946,0.12268 -0.56152,0.415037 1.05895,-0.211189 0.30212,0.545648 -0.79102,0.512688 -0.74705,-0.107379 -1.11327,-0.175779 2.49028,-2.138625 -0.45899,-3.109102 0.4834,-4.998727 -1.68943,0.6543 -0.73729,-0.439486 -1.42089,-0.541986 1.8359,-0.444363 -0.52734,-0.703112 0.4834,-1.391587 l -1.74315,0.688469 c 0.82038,-1.123025 -3.12559,-0.839828 -1.08946,-1.889628 0.44425,-0.62505 1.35739,-0.09758 1.72849,0.0293 1.79203,-1.044875 -1.92872,-1.544162 0.17578,-2.45725 -0.747,0.044 -1.92868,0.450348 -2.69528,-0.09155 0.71294,-0.625025 1.54478,-1.690077 1.92075,-1.631452 -0.3858,-0.361337 -0.98692,-0.429679 -0.3424,-0.922842 0.48829,0.005 0.56213,0.190489 0.78185,0.307614 0.45898,-0.717762 -0.38694,-1.201769 -1.1096,-1.807232 1.36228,-0.410125 0.63048,-1.616184 1.49961,-2.373021 -1.7285,-0.5273 0.7715,-1.215807 -1.49412,-1.435532 0.23925,0.039 0.54259,-0.0379 0.67931,-0.0769 -0.63487,-0.3418 -2.08616,-0.727528 -2.16428,-1.142566 l 1.47032,0.272825 c 1.84571,0.278375 0.5316,-1.026225 1.47398,-1.016225 -1.31347,0.151363 0.083,-0.413804 -1.04002,-0.604241 l -0.401,-0.523677 c -0.27831,-0.786137 -0.71714,-0.198965 -0.78552,-1.146228 -0.005,-0.532225 1.71874,0.15503 1.50878,0.28198 0.79742,-0.26575 0.47835,-0.756161 0.26184,-1.243273 -0.0352,0.153337 -0.15295,0.182355 -0.42664,-0.04028 0.18872,0.03288 0.30756,0.01715 0.401,-0.01648 -0.0774,-0.182425 -0.13411,-0.364026 -0.10437,-0.531001 0.0379,0.01425 0.0459,0.01255 0.0787,0.0238 0.0419,0.194 0.0705,0.369779 0.0623,0.494379 0.16519,-0.07875 0.2153,-0.243082 0.26916,-0.411982 0.0649,-0.0025 0.0626,-0.04463 0.0385,-0.09888 0.0604,-0.142313 0.15078,-0.268515 0.39733,-0.303952 l 1.10228,0.399165 c 0.12213,-0.26375 -0.95579,-1.415451 -1.43919,-1.532576 1.33789,-0.996125 1.156,-3.457601 0.73608,-4.312088 -0.0537,0.380787 0.75744,0.825795 0.32775,0.415645 -0.0879,-0.488288 -0.76713,-1.313464 -0.0641,-1.054676 -0.24913,-0.566463 0.91368,-0.01588 1.27989,-0.523677 0.17211,0.06962 -0.48316,-0.297092 -0.7965,-0.388179 1.75774,-0.299675 8.3e-4,-2.73375 1.63694,-3.303188 -0.007,0.124375 0.51561,0.614058 0.78186,0.889883 0.0188,-1.114425 0.0261,-2.204592 -0.56762,-3.740805 0.37597,0.375975 0.80569,0.639634 0.90819,0.996084 0.319,-0.4473 0.50617,-1.058607 0.24536,-1.754132 0.009,0.03112 -6.2e-4,0.0616 -0.0311,0.08972 -1.13769,-0.19525 -1.43492,-1.586887 -0.91735,-1.816387 l 0.20508,0.140989 c 0.42965,-0.595737 -0.0934,-1.063828 0.40466,-1.620466 0.81055,0.09763 -0.009,0.497434 0.67015,0.829459 1.54788,1.069363 1.98667,-0.429629 2.25035,-0.395504 -0.19044,-0.400387 -0.24962,-0.791612 -0.63537,-1.118762 0.0195,-0.756838 0.96677,0.562737 1.15721,0.216062 -0.49807,-1.185325 -0.90939,-2.351478 -1.28722,-3.546715 0.29382,0.41065 1.47192,0.797095 1.54723,1.583845 0.70312,-0.961875 -0.22461,-3.051749 -0.36621,-4.482374 0.46386,-0.03425 1.02965,-1.339091 1.3275,-1.680891 0.75687,0.6543 -0.3315,0.176989 0.0641,0.845939 l 1.19933,0.51269 c -0.56643,0.620125 1.1383,1.336645 1.2213,2.171607 0.14162,-0.8643 1.70835,-1.292704 2.70444,-1.453842 -1.7285,-1.46 0.53711,-1.528232 -0.46875,-3.134732 0.20754,-0.228287 0.39115,-0.278861 0.55847,-0.223386 z m -9.60378,13.082747 c -0.0666,-0.177575 -0.1406,-0.357961 -0.27466,-0.545649 -0.6366,0.0555 0.21546,0.327949 0.27466,0.545649 z m -0.58593,4.498853 c -6.9e-4,0.04025 -0.002,0.08047 -0.002,0.120849 0.25396,0.158312 0.16715,0.04928 0.002,-0.120849 z m -4.26998,10.224501 c -0.0112,0.005 -0.0246,0.0087 -0.0366,0.01282 0.009,0.01925 0.0171,0.03751 0.0256,0.05676 0.005,-0.02112 0.008,-0.04358 0.011,-0.06958 z m -0.32775,-1.558211 c 0.0187,0.08563 0.0511,0.207425 0.0824,0.322263 -0.0954,-0.138113 -0.15446,-0.258463 -0.0824,-0.322263 z m 65.4943,25.083353 c 0.0309,0.229287 0.14431,0.411826 0.2893,0.576776 0.16074,-0.0425 0.1661,-0.173264 -0.2893,-0.576776 z m 0.2893,0.576776 c -0.32359,0.0855 -1.32755,-0.221638 -0.83495,0.375362 -0.44921,-0.09762 -0.93321,-0.762329 -1.2213,-0.547479 0.63475,0.698212 2.14291,1.040035 2.83627,0.76171 0.14983,0.0345 0.23506,0.07631 0.32959,0.117186 -0.46193,-0.199525 -0.8556,-0.417804 -1.10961,-0.706779 z m -9.17898,6.66863 c 0.063,-0.01604 0.15173,-0.01468 0.27099,0.0055 h 0.002 c 0.009,0.04465 0.0333,0.08097 0.0476,0.12268 -0.0143,-0.04202 -0.0407,-0.07769 -0.0494,-0.12268 -0.12048,-0.02059 -0.20943,-0.01981 -0.27282,-0.0037 z m 1.69554,0.03296 c 0.53684,0.445475 1.10053,0.773622 1.25243,0.397335 1.40624,1.865225 -0.0842,0.610944 -0.40649,1.484969 0.69824,1.127925 0.18674,-0.332649 1.09496,0.580438 0.89355,0.781288 0.45898,1.230451 0.26367,1.699201 -0.55663,0.507775 -1.23045,-0.781849 -2.02147,-1.235949 -0.039,-0.248987 0.23437,-0.74097 0.70312,-0.150145 -0.2178,-1.197712 -1.3399,-1.586069 -1.94273,-2.182594 0.17529,0.1713 0.3934,0.324512 0.61889,0.485225 0.15539,-0.355825 0.30176,-0.714743 0.43762,-1.07848 z m -3.81222,1.851177 c 0.0486,-0.01 0.12878,0.069 0.26917,0.305783 -0.0488,0.0708 -0.0562,0.286861 -0.12818,0.413814 -0.036,0.06348 -0.0886,0.105589 -0.17028,0.09521 -0.0816,-0.01038 -0.19225,-0.07324 -0.34607,-0.216062 0.0917,0.06592 0.15128,0.06328 0.19226,0.02197 0.041,-0.0413 0.0638,-0.121223 0.0787,-0.210569 0.0298,-0.178699 0.0315,-0.394359 0.10436,-0.410152 z m 2.97727,0.09338 c 0.24469,0.31348 0.51412,0.685336 0.75438,0.83129 0.93154,2.255463 -0.28104,0.996723 -1.35862,0.128173 0.0235,0.01899 0.046,0.03383 0.0696,0.0531 0.18707,-0.333353 0.3665,-0.670422 0.53466,-1.012563 z m -1.67357,0.344235 c 0.008,-6.75e-4 0.0196,0.0074 0.0275,0.0073 -0.0213,9.88e-4 -0.0433,6e-6 -0.0623,0.0055 0.0122,-0.0031 0.0216,-0.01163 0.0348,-0.01282 z m -2.8143,0.853263 c 0.14649,0.1233 0.32654,0.24147 0.531,0.358882 -0.20365,-0.11695 -0.38482,-0.234289 -0.531,-0.357051 z m 3.48446,0.613396 c 0.4965,1.2187 0.45742,2.462854 2.04527,3.535729 0.0146,0.493163 0.0189,1.143904 -0.3717,1.138904 -0.64947,-1.445325 -1.12243,-0.655432 -1.53258,-2.178932 l -0.34607,0.239866 -0.57128,-1.854839 h 0.002 l 0.0604,0.19409 c 0.25031,-0.352325 0.48759,-0.710105 0.7141,-1.074818 z m -4.91633,0.08972 0.21606,1.409897 c 0.0256,0.09032 0.11479,0.220802 0.2417,0.360714 -0.12735,-0.140262 -0.21785,-0.270189 -0.24353,-0.360714 l -0.18859,-1.234118 c -0.008,-0.05626 -0.01,-0.09505 -0.0256,-0.175779 z m 0.99242,0.05676 c 0.0407,-0.0035 0.087,7.42e-4 0.13733,0.01282 -0.0998,-0.02399 -0.1849,-0.01632 -0.23987,0.02197 0.0275,-0.01954 0.0618,-0.03126 0.10254,-0.03479 z m -1.47764,0.01099 c 0.0274,-0.01856 0.0602,-0.01055 0.097,0.01099 -0.0368,-0.02154 -0.0696,-0.02771 -0.097,-0.0092 z m 1.02538,0.309445 0.57128,0.747063 c -0.11713,0.01 -0.22388,-0.07813 -0.22888,0.161131 -0.17089,-0.09521 -0.28122,-0.286862 -0.33691,-0.472407 -0.0557,-0.185546 -0.0568,-0.364987 -0.005,-0.435787 z m -3.25925,1.21947 0.37903,0.686638 -0.37903,-0.682976 c 7e-5,-9.13e-4 -6e-5,-0.0028 0,-0.0037 z m 2.46458,0.516352 h 0.002 l -0.0842,1.072986 -0.002,0.0018 0.0842,-1.072986 z m -7.31133,1.706525 c 0.0216,-0.0054 0.046,-0.0036 0.0714,0.0018 -0.0509,-0.01132 -0.0946,-0.0022 -0.12817,0.03662 0.0167,-0.02 0.0351,-0.03303 0.0568,-0.03845 z m -21.41762,1.065662 c 0.1388,-0.0026 0.27847,0.005 0.41565,0.02197 -0.27436,-0.03399 -0.55663,-0.0293 -0.82763,0.01465 0.1355,-0.02197 0.27317,-0.03406 0.41198,-0.03662 z m 17.09272,1.069325 c 0.0471,0.0074 0.10655,0.01996 0.16296,0.03113 -0.12066,-0.02364 -0.22866,-0.05037 -0.29113,-0.0293 0.0322,-0.01085 0.0762,-0.01001 0.12817,-0.0018 z m -2.61106,0.07324 c 0.24925,-0.0015 0.49438,0.0024 0.73608,0.0073 -0.4834,-0.0097 -0.98336,-0.01818 -1.49413,0.02014 0.25539,-0.01916 0.5088,-0.02597 0.75805,-0.02747 z m 0.73058,0.754387 c 0.14283,0.168462 0.22522,0.169808 0.27466,0.08606 -0.0494,0.08481 -0.13124,0.08309 -0.27466,-0.08606 z m 41.24774,-33.454845 c -0.78613,1.186525 0.2545,-0.346677 0.54748,0.659173 0.49316,-0.322263 0.0482,-0.527335 -0.54748,-0.659173 z" />
</svg>
